<svg width="222" height="227" viewBox="0 0 222 227" fill="none" xmlns="http://www.w3.org/2000/svg">
<g filter="url(#filter0_d)">
<path d="M111 6L207.129 57.75V161.25L111 213L14.8712 161.25V57.75L111 6Z" fill="white"/>
<path d="M112.185 3.79871L111 3.16075L109.815 3.79871L13.6861 55.5487L12.3712 56.2566V57.75V161.25V162.743L13.6861 163.451L109.815 215.201L111 215.839L112.185 215.201L208.314 163.451L209.629 162.743V161.25V57.75V56.2566L208.314 55.5487L112.185 3.79871Z" stroke="#6B1414" stroke-width="5"/>
</g>
<path d="M64.605 139.15C63.385 139.15 62.43 138.805 61.74 138.115C61.06 137.415 60.72 136.435 60.72 135.175C60.72 134.465 60.85 133.81 61.11 133.21C61.37 132.61 61.77 132.125 62.31 131.755C62.85 131.385 63.515 131.2 64.305 131.2C65.045 131.2 65.685 131.375 66.225 131.725C66.765 132.065 67.175 132.525 67.455 133.105C67.735 133.675 67.875 134.3 67.875 134.98C67.875 135.17 67.81 135.33 67.68 135.46C67.56 135.59 67.395 135.655 67.185 135.655H62.1C62.18 136.355 62.44 136.9 62.88 137.29C63.32 137.68 63.935 137.875 64.725 137.875C65.145 137.875 65.51 137.835 65.82 137.755C66.14 137.675 66.45 137.56 66.75 137.41C66.83 137.37 66.92 137.35 67.02 137.35C67.18 137.35 67.32 137.405 67.44 137.515C67.56 137.625 67.62 137.765 67.62 137.935C67.62 138.155 67.49 138.34 67.23 138.49C66.84 138.71 66.455 138.875 66.075 138.985C65.695 139.095 65.205 139.15 64.605 139.15ZM66.525 134.545C66.495 134.055 66.365 133.645 66.135 133.315C65.915 132.985 65.64 132.745 65.31 132.595C64.98 132.435 64.645 132.355 64.305 132.355C63.965 132.355 63.63 132.435 63.3 132.595C62.97 132.745 62.695 132.985 62.475 133.315C62.255 133.645 62.13 134.055 62.1 134.545H66.525ZM70.0411 139C69.7711 139 69.5461 138.93 69.3661 138.79C69.1861 138.65 69.0961 138.455 69.0961 138.205C69.0961 137.975 69.1761 137.77 69.3361 137.59L73.6561 132.625H69.8611C69.6811 132.625 69.5311 132.565 69.4111 132.445C69.2911 132.325 69.2311 132.175 69.2311 131.995C69.2311 131.815 69.2911 131.665 69.4111 131.545C69.5311 131.415 69.6811 131.35 69.8611 131.35H74.4061C74.6661 131.35 74.8761 131.43 75.0361 131.59C75.1961 131.75 75.2761 131.955 75.2761 132.205C75.2761 132.435 75.2061 132.635 75.0661 132.805L70.8661 137.725H74.7211C74.9011 137.725 75.0511 137.79 75.1711 137.92C75.3011 138.04 75.3661 138.19 75.3661 138.37C75.3661 138.55 75.3011 138.7 75.1711 138.82C75.0511 138.94 74.9011 139 74.7211 139H70.0411ZM80.5718 139.15C79.3518 139.15 78.3968 138.805 77.7068 138.115C77.0268 137.415 76.6868 136.435 76.6868 135.175C76.6868 134.465 76.8168 133.81 77.0768 133.21C77.3368 132.61 77.7368 132.125 78.2768 131.755C78.8168 131.385 79.4818 131.2 80.2718 131.2C81.0118 131.2 81.6518 131.375 82.1918 131.725C82.7318 132.065 83.1418 132.525 83.4218 133.105C83.7018 133.675 83.8418 134.3 83.8418 134.98C83.8418 135.17 83.7768 135.33 83.6468 135.46C83.5268 135.59 83.3618 135.655 83.1518 135.655H78.0668C78.1468 136.355 78.4068 136.9 78.8468 137.29C79.2868 137.68 79.9018 137.875 80.6918 137.875C81.1118 137.875 81.4768 137.835 81.7868 137.755C82.1068 137.675 82.4168 137.56 82.7168 137.41C82.7968 137.37 82.8868 137.35 82.9868 137.35C83.1468 137.35 83.2868 137.405 83.4068 137.515C83.5268 137.625 83.5868 137.765 83.5868 137.935C83.5868 138.155 83.4568 138.34 83.1968 138.49C82.8068 138.71 82.4218 138.875 82.0418 138.985C81.6618 139.095 81.1718 139.15 80.5718 139.15ZM82.4918 134.545C82.4618 134.055 82.3318 133.645 82.1018 133.315C81.8818 132.985 81.6068 132.745 81.2768 132.595C80.9468 132.435 80.6118 132.355 80.2718 132.355C79.9318 132.355 79.5968 132.435 79.2668 132.595C78.9368 132.745 78.6618 132.985 78.4418 133.315C78.2218 133.645 78.0968 134.055 78.0668 134.545H82.4918ZM86.3229 139.075C86.1329 139.075 85.9729 139.01 85.8429 138.88C85.7129 138.75 85.6479 138.59 85.6479 138.4V128.665C85.6479 128.475 85.7129 128.315 85.8429 128.185C85.9729 128.045 86.1329 127.975 86.3229 127.975C86.5129 127.975 86.6729 128.045 86.8029 128.185C86.9429 128.315 87.0129 128.475 87.0129 128.665V134.8L90.5829 131.5C90.7329 131.37 90.8829 131.305 91.0329 131.305C91.2629 131.305 91.4279 131.37 91.5279 131.5C91.6379 131.63 91.6929 131.785 91.6929 131.965C91.6929 132.135 91.6079 132.305 91.4379 132.475L89.2779 134.41L91.9929 138.01C92.0929 138.14 92.1429 138.275 92.1429 138.415C92.1429 138.615 92.0779 138.775 91.9479 138.895C91.8179 139.015 91.6529 139.075 91.4529 139.075C91.3529 139.075 91.2529 139.05 91.1529 139C91.0529 138.95 90.9679 138.88 90.8979 138.79L88.3179 135.28L87.0129 136.465V138.4C87.0129 138.59 86.9429 138.75 86.8029 138.88C86.6729 139.01 86.5129 139.075 86.3229 139.075ZM94.4667 129.79C94.2567 129.79 94.0767 129.715 93.9267 129.565C93.7767 129.415 93.7017 129.235 93.7017 129.025V128.965C93.7017 128.755 93.7767 128.575 93.9267 128.425C94.0767 128.275 94.2567 128.2 94.4667 128.2H94.5567C94.7667 128.2 94.9467 128.275 95.0967 128.425C95.2467 128.575 95.3217 128.755 95.3217 128.965V129.025C95.3217 129.235 95.2467 129.415 95.0967 129.565C94.9467 129.715 94.7667 129.79 94.5567 129.79H94.4667ZM94.4967 139.075C94.3067 139.075 94.1467 139.01 94.0167 138.88C93.8867 138.75 93.8217 138.59 93.8217 138.4V131.965C93.8217 131.775 93.8867 131.615 94.0167 131.485C94.1467 131.345 94.3067 131.275 94.4967 131.275C94.6967 131.275 94.8617 131.34 94.9917 131.47C95.1217 131.6 95.1867 131.765 95.1867 131.965V138.4C95.1867 138.59 95.1167 138.75 94.9767 138.88C94.8467 139.01 94.6867 139.075 94.4967 139.075ZM100.977 139.15C99.7571 139.15 98.8021 138.805 98.1121 138.115C97.4321 137.415 97.0921 136.435 97.0921 135.175C97.0921 134.465 97.2221 133.81 97.4821 133.21C97.7421 132.61 98.1421 132.125 98.6821 131.755C99.2221 131.385 99.8871 131.2 100.677 131.2C101.417 131.2 102.057 131.375 102.597 131.725C103.137 132.065 103.547 132.525 103.827 133.105C104.107 133.675 104.247 134.3 104.247 134.98C104.247 135.17 104.182 135.33 104.052 135.46C103.932 135.59 103.767 135.655 103.557 135.655H98.4721C98.5521 136.355 98.8121 136.9 99.2521 137.29C99.6921 137.68 100.307 137.875 101.097 137.875C101.517 137.875 101.882 137.835 102.192 137.755C102.512 137.675 102.822 137.56 103.122 137.41C103.202 137.37 103.292 137.35 103.392 137.35C103.552 137.35 103.692 137.405 103.812 137.515C103.932 137.625 103.992 137.765 103.992 137.935C103.992 138.155 103.862 138.34 103.602 138.49C103.212 138.71 102.827 138.875 102.447 138.985C102.067 139.095 101.577 139.15 100.977 139.15ZM102.897 134.545C102.867 134.055 102.737 133.645 102.507 133.315C102.287 132.985 102.012 132.745 101.682 132.595C101.352 132.435 101.017 132.355 100.677 132.355C100.337 132.355 100.002 132.435 99.6721 132.595C99.3421 132.745 99.0671 132.985 98.8471 133.315C98.6271 133.645 98.5021 134.055 98.4721 134.545H102.897ZM106.728 139.075C106.538 139.075 106.378 139.01 106.248 138.88C106.118 138.75 106.053 138.59 106.053 138.4V128.665C106.053 128.475 106.118 128.315 106.248 128.185C106.378 128.045 106.538 127.975 106.728 127.975C106.928 127.975 107.093 128.04 107.223 128.17C107.353 128.3 107.418 128.465 107.418 128.665V138.4C107.418 138.59 107.348 138.75 107.208 138.88C107.078 139.01 106.918 139.075 106.728 139.075ZM117.105 139.15C115.885 139.15 114.93 138.805 114.24 138.115C113.56 137.415 113.22 136.435 113.22 135.175C113.22 134.465 113.35 133.81 113.61 133.21C113.87 132.61 114.27 132.125 114.81 131.755C115.35 131.385 116.015 131.2 116.805 131.2C117.545 131.2 118.185 131.375 118.725 131.725C119.265 132.065 119.675 132.525 119.955 133.105C120.235 133.675 120.375 134.3 120.375 134.98C120.375 135.17 120.31 135.33 120.18 135.46C120.06 135.59 119.895 135.655 119.685 135.655H114.6C114.68 136.355 114.94 136.9 115.38 137.29C115.82 137.68 116.435 137.875 117.225 137.875C117.645 137.875 118.01 137.835 118.32 137.755C118.64 137.675 118.95 137.56 119.25 137.41C119.33 137.37 119.42 137.35 119.52 137.35C119.68 137.35 119.82 137.405 119.94 137.515C120.06 137.625 120.12 137.765 120.12 137.935C120.12 138.155 119.99 138.34 119.73 138.49C119.34 138.71 118.955 138.875 118.575 138.985C118.195 139.095 117.705 139.15 117.105 139.15ZM119.025 134.545C118.995 134.055 118.865 133.645 118.635 133.315C118.415 132.985 118.14 132.745 117.81 132.595C117.48 132.435 117.145 132.355 116.805 132.355C116.465 132.355 116.13 132.435 115.8 132.595C115.47 132.745 115.195 132.985 114.975 133.315C114.755 133.645 114.63 134.055 114.6 134.545H119.025ZM122.856 139.075C122.666 139.075 122.506 139.01 122.376 138.88C122.246 138.75 122.181 138.59 122.181 138.4V128.665C122.181 128.475 122.246 128.315 122.376 128.185C122.506 128.045 122.666 127.975 122.856 127.975C123.046 127.975 123.206 128.045 123.336 128.185C123.476 128.315 123.546 128.475 123.546 128.665V134.8L127.116 131.5C127.266 131.37 127.416 131.305 127.566 131.305C127.796 131.305 127.961 131.37 128.061 131.5C128.171 131.63 128.226 131.785 128.226 131.965C128.226 132.135 128.141 132.305 127.971 132.475L125.811 134.41L128.526 138.01C128.626 138.14 128.676 138.275 128.676 138.415C128.676 138.615 128.611 138.775 128.481 138.895C128.351 139.015 128.186 139.075 127.986 139.075C127.886 139.075 127.786 139.05 127.686 139C127.586 138.95 127.501 138.88 127.431 138.79L124.851 135.28L123.546 136.465V138.4C123.546 138.59 123.476 138.75 123.336 138.88C123.206 139.01 123.046 139.075 122.856 139.075ZM132.965 139.15C132.415 139.15 131.935 139.02 131.525 138.76C131.125 138.5 130.815 138.145 130.595 137.695C130.385 137.245 130.28 136.75 130.28 136.21V131.95C130.28 131.76 130.345 131.6 130.475 131.47C130.615 131.34 130.78 131.275 130.97 131.275C131.16 131.275 131.32 131.34 131.45 131.47C131.58 131.6 131.645 131.76 131.645 131.95V136.06C131.645 137.28 132.195 137.89 133.295 137.89C133.795 137.89 134.24 137.76 134.63 137.5C135.03 137.24 135.405 136.89 135.755 136.45V131.95C135.755 131.76 135.82 131.6 135.95 131.47C136.09 131.34 136.255 131.275 136.445 131.275C136.635 131.275 136.795 131.34 136.925 131.47C137.055 131.6 137.12 131.76 137.12 131.95V138.385C137.12 138.575 137.055 138.74 136.925 138.88C136.795 139.01 136.635 139.075 136.445 139.075C136.255 139.075 136.09 139.01 135.95 138.88C135.82 138.74 135.755 138.575 135.755 138.385V137.77C135.375 138.19 134.965 138.525 134.525 138.775C134.085 139.025 133.565 139.15 132.965 139.15ZM140.171 139.075C139.981 139.075 139.821 139.01 139.691 138.88C139.561 138.75 139.496 138.59 139.496 138.4V131.965C139.496 131.775 139.561 131.615 139.691 131.485C139.821 131.345 139.981 131.275 140.171 131.275C140.361 131.275 140.521 131.345 140.651 131.485C140.791 131.615 140.861 131.775 140.861 131.965V132.58C141.241 132.16 141.651 131.825 142.091 131.575C142.531 131.325 143.051 131.2 143.651 131.2C144.201 131.2 144.676 131.33 145.076 131.59C145.486 131.85 145.796 132.205 146.006 132.655C146.226 133.105 146.336 133.6 146.336 134.14V138.4C146.336 138.59 146.266 138.75 146.126 138.88C145.996 139.01 145.836 139.075 145.646 139.075C145.456 139.075 145.296 139.01 145.166 138.88C145.036 138.75 144.971 138.59 144.971 138.4V134.29C144.971 133.07 144.421 132.46 143.321 132.46C142.821 132.46 142.371 132.59 141.971 132.85C141.581 133.11 141.211 133.46 140.861 133.9V138.4C140.861 138.59 140.791 138.75 140.651 138.88C140.521 139.01 140.361 139.075 140.171 139.075ZM152.011 139.15C151.241 139.15 150.566 138.985 149.986 138.655C149.406 138.325 148.956 137.86 148.636 137.26C148.326 136.65 148.171 135.955 148.171 135.175C148.171 134.395 148.326 133.705 148.636 133.105C148.956 132.495 149.406 132.025 149.986 131.695C150.566 131.365 151.241 131.2 152.011 131.2C152.771 131.2 153.441 131.365 154.021 131.695C154.601 132.025 155.051 132.495 155.371 133.105C155.691 133.705 155.851 134.395 155.851 135.175C155.851 135.955 155.691 136.65 155.371 137.26C155.051 137.86 154.601 138.325 154.021 138.655C153.441 138.985 152.771 139.15 152.011 139.15ZM152.011 137.905C152.421 137.905 152.811 137.81 153.181 137.62C153.561 137.43 153.871 137.13 154.111 136.72C154.361 136.31 154.486 135.79 154.486 135.16C154.486 134.54 154.361 134.025 154.111 133.615C153.871 133.205 153.561 132.91 153.181 132.73C152.811 132.54 152.421 132.445 152.011 132.445C151.591 132.445 151.191 132.54 150.811 132.73C150.441 132.91 150.136 133.205 149.896 133.615C149.656 134.025 149.536 134.54 149.536 135.16C149.536 135.79 149.656 136.31 149.896 136.72C150.136 137.13 150.441 137.43 150.811 137.62C151.191 137.81 151.591 137.905 152.011 137.905ZM158.437 139.075C158.247 139.075 158.087 139.01 157.957 138.88C157.827 138.75 157.762 138.59 157.762 138.4V128.665C157.762 128.475 157.827 128.315 157.957 128.185C158.087 128.045 158.247 127.975 158.437 127.975C158.637 127.975 158.802 128.04 158.932 128.17C159.062 128.3 159.127 128.465 159.127 128.665V138.4C159.127 138.59 159.057 138.75 158.917 138.88C158.787 139.01 158.627 139.075 158.437 139.075ZM163.448 139.15C163.008 139.15 162.598 139.06 162.218 138.88C161.848 138.7 161.553 138.44 161.333 138.1C161.113 137.75 161.003 137.35 161.003 136.9C161.003 136.16 161.293 135.57 161.873 135.13C162.463 134.69 163.323 134.47 164.453 134.47H166.268V134.35C166.268 133.69 166.103 133.215 165.773 132.925C165.453 132.635 164.948 132.49 164.258 132.49C163.878 132.49 163.538 132.52 163.238 132.58C162.948 132.64 162.623 132.73 162.263 132.85C162.183 132.87 162.118 132.88 162.068 132.88C161.918 132.88 161.788 132.825 161.678 132.715C161.568 132.605 161.513 132.47 161.513 132.31C161.513 132.04 161.643 131.85 161.903 131.74C162.753 131.38 163.618 131.2 164.498 131.2C165.188 131.2 165.768 131.34 166.238 131.62C166.718 131.9 167.068 132.265 167.288 132.715C167.518 133.155 167.633 133.635 167.633 134.155V138.4C167.633 138.59 167.563 138.75 167.423 138.88C167.293 139.01 167.133 139.075 166.943 139.075C166.753 139.075 166.593 139.01 166.463 138.88C166.333 138.75 166.268 138.59 166.268 138.4V138.01C165.528 138.77 164.588 139.15 163.448 139.15ZM163.958 137.95C164.398 137.95 164.823 137.845 165.233 137.635C165.643 137.415 165.988 137.145 166.268 136.825V135.565H164.633C163.123 135.565 162.368 135.96 162.368 136.75C162.368 137.11 162.488 137.4 162.728 137.62C162.978 137.84 163.388 137.95 163.958 137.95Z" fill="black"/>
<path fill-rule="evenodd" clip-rule="evenodd" d="M75.1994 86.7705L70.5992 80.44H61.0302V111.88C61.0302 116.08 61.9902 119.02 63.9102 120.7C65.8702 122.34 69.2502 123.16 74.0502 123.16H89.1702V115.72H74.6502C72.6502 115.72 71.2702 115.4 70.5102 114.76C69.7502 114.12 69.3702 112.96 69.3702 111.28V105.34H82.6302L83.2302 97.9H69.3702V87.88H89.1702V80.44H76.3157L75.1994 86.7705ZM52.1 112.96V120.76L29 109.42V103.06L52.1 91.78V99.58L36.98 106.3L52.1 112.96ZM116.315 123.16H110.378C105.578 123.16 102.198 122.34 100.238 120.7C98.3183 119.02 97.3583 116.08 97.3583 111.88V80.44H125.498V87.88H105.698V97.9H119.558L118.958 105.34H105.698V111.28C105.698 112.96 106.078 114.12 106.838 114.76C107.589 115.393 108.946 115.713 110.909 115.72L116.315 123.16ZM120.421 123.16L111.196 115.72H125.498V123.16H120.421ZM167.072 76L149.972 127.6H142.652L159.752 76H167.072ZM170.211 120.76V112.96L185.331 106.3L170.211 99.58V91.78L193.311 103.06V109.42L170.211 120.76Z" fill="black"/>
<defs>
<filter id="filter0_d" x="5.87122" y="0.321289" width="210.258" height="226.357" filterUnits="userSpaceOnUse" color-interpolation-filters="sRGB">
<feFlood flood-opacity="0" result="BackgroundImageFix"/>
<feColorMatrix in="SourceAlpha" type="matrix" values="0 0 0 0 0 0 0 0 0 0 0 0 0 0 0 0 0 0 127 0"/>
<feOffset dy="4"/>
<feGaussianBlur stdDeviation="2"/>
<feColorMatrix type="matrix" values="0 0 0 0 0 0 0 0 0 0 0 0 0 0 0 0 0 0 0.25 0"/>
<feBlend mode="normal" in2="BackgroundImageFix" result="effect1_dropShadow"/>
<feBlend mode="normal" in="SourceGraphic" in2="effect1_dropShadow" result="shape"/>
</filter>
</defs>
</svg>
