<svg width="165" height="67" viewBox="0 0 165 67" fill="none" xmlns="http://www.w3.org/2000/svg">
<path d="M35.605 63.15C34.385 63.15 33.43 62.805 32.74 62.115C32.06 61.415 31.72 60.435 31.72 59.175C31.72 58.465 31.85 57.81 32.11 57.21C32.37 56.61 32.77 56.125 33.31 55.755C33.85 55.385 34.515 55.2 35.305 55.2C36.045 55.2 36.685 55.375 37.225 55.725C37.765 56.065 38.175 56.525 38.455 57.105C38.735 57.675 38.875 58.3 38.875 58.98C38.875 59.17 38.81 59.33 38.68 59.46C38.56 59.59 38.395 59.655 38.185 59.655H33.1C33.18 60.355 33.44 60.9 33.88 61.29C34.32 61.68 34.935 61.875 35.725 61.875C36.145 61.875 36.51 61.835 36.82 61.755C37.14 61.675 37.45 61.56 37.75 61.41C37.83 61.37 37.92 61.35 38.02 61.35C38.18 61.35 38.32 61.405 38.44 61.515C38.56 61.625 38.62 61.765 38.62 61.935C38.62 62.155 38.49 62.34 38.23 62.49C37.84 62.71 37.455 62.875 37.075 62.985C36.695 63.095 36.205 63.15 35.605 63.15ZM37.525 58.545C37.495 58.055 37.365 57.645 37.135 57.315C36.915 56.985 36.64 56.745 36.31 56.595C35.98 56.435 35.645 56.355 35.305 56.355C34.965 56.355 34.63 56.435 34.3 56.595C33.97 56.745 33.695 56.985 33.475 57.315C33.255 57.645 33.13 58.055 33.1 58.545H37.525ZM41.0411 63C40.7711 63 40.5461 62.93 40.3661 62.79C40.1861 62.65 40.0961 62.455 40.0961 62.205C40.0961 61.975 40.1761 61.77 40.3361 61.59L44.6561 56.625H40.8611C40.6811 56.625 40.5311 56.565 40.4111 56.445C40.2911 56.325 40.2311 56.175 40.2311 55.995C40.2311 55.815 40.2911 55.665 40.4111 55.545C40.5311 55.415 40.6811 55.35 40.8611 55.35H45.4061C45.6661 55.35 45.8761 55.43 46.0361 55.59C46.1961 55.75 46.2761 55.955 46.2761 56.205C46.2761 56.435 46.2061 56.635 46.0661 56.805L41.8661 61.725H45.7211C45.9011 61.725 46.0511 61.79 46.1711 61.92C46.3011 62.04 46.3661 62.19 46.3661 62.37C46.3661 62.55 46.3011 62.7 46.1711 62.82C46.0511 62.94 45.9011 63 45.7211 63H41.0411ZM51.5718 63.15C50.3518 63.15 49.3968 62.805 48.7068 62.115C48.0268 61.415 47.6868 60.435 47.6868 59.175C47.6868 58.465 47.8168 57.81 48.0768 57.21C48.3368 56.61 48.7368 56.125 49.2768 55.755C49.8168 55.385 50.4818 55.2 51.2718 55.2C52.0118 55.2 52.6518 55.375 53.1918 55.725C53.7318 56.065 54.1418 56.525 54.4218 57.105C54.7018 57.675 54.8418 58.3 54.8418 58.98C54.8418 59.17 54.7768 59.33 54.6468 59.46C54.5268 59.59 54.3618 59.655 54.1518 59.655H49.0668C49.1468 60.355 49.4068 60.9 49.8468 61.29C50.2868 61.68 50.9018 61.875 51.6918 61.875C52.1118 61.875 52.4768 61.835 52.7868 61.755C53.1068 61.675 53.4168 61.56 53.7168 61.41C53.7968 61.37 53.8868 61.35 53.9868 61.35C54.1468 61.35 54.2868 61.405 54.4068 61.515C54.5268 61.625 54.5868 61.765 54.5868 61.935C54.5868 62.155 54.4568 62.34 54.1968 62.49C53.8068 62.71 53.4218 62.875 53.0418 62.985C52.6618 63.095 52.1718 63.15 51.5718 63.15ZM53.4918 58.545C53.4618 58.055 53.3318 57.645 53.1018 57.315C52.8818 56.985 52.6068 56.745 52.2768 56.595C51.9468 56.435 51.6118 56.355 51.2718 56.355C50.9318 56.355 50.5968 56.435 50.2668 56.595C49.9368 56.745 49.6618 56.985 49.4418 57.315C49.2218 57.645 49.0968 58.055 49.0668 58.545H53.4918ZM57.3229 63.075C57.1329 63.075 56.9729 63.01 56.8429 62.88C56.7129 62.75 56.6479 62.59 56.6479 62.4V52.665C56.6479 52.475 56.7129 52.315 56.8429 52.185C56.9729 52.045 57.1329 51.975 57.3229 51.975C57.5129 51.975 57.6729 52.045 57.8029 52.185C57.9429 52.315 58.0129 52.475 58.0129 52.665V58.8L61.5829 55.5C61.7329 55.37 61.8829 55.305 62.0329 55.305C62.2629 55.305 62.4279 55.37 62.5279 55.5C62.6379 55.63 62.6929 55.785 62.6929 55.965C62.6929 56.135 62.6079 56.305 62.4379 56.475L60.2779 58.41L62.9929 62.01C63.0929 62.14 63.1429 62.275 63.1429 62.415C63.1429 62.615 63.0779 62.775 62.9479 62.895C62.8179 63.015 62.6529 63.075 62.4529 63.075C62.3529 63.075 62.2529 63.05 62.1529 63C62.0529 62.95 61.9679 62.88 61.8979 62.79L59.3179 59.28L58.0129 60.465V62.4C58.0129 62.59 57.9429 62.75 57.8029 62.88C57.6729 63.01 57.5129 63.075 57.3229 63.075ZM65.4667 53.79C65.2567 53.79 65.0767 53.715 64.9267 53.565C64.7767 53.415 64.7017 53.235 64.7017 53.025V52.965C64.7017 52.755 64.7767 52.575 64.9267 52.425C65.0767 52.275 65.2567 52.2 65.4667 52.2H65.5567C65.7667 52.2 65.9467 52.275 66.0967 52.425C66.2467 52.575 66.3217 52.755 66.3217 52.965V53.025C66.3217 53.235 66.2467 53.415 66.0967 53.565C65.9467 53.715 65.7667 53.79 65.5567 53.79H65.4667ZM65.4967 63.075C65.3067 63.075 65.1467 63.01 65.0167 62.88C64.8867 62.75 64.8217 62.59 64.8217 62.4V55.965C64.8217 55.775 64.8867 55.615 65.0167 55.485C65.1467 55.345 65.3067 55.275 65.4967 55.275C65.6967 55.275 65.8617 55.34 65.9917 55.47C66.1217 55.6 66.1867 55.765 66.1867 55.965V62.4C66.1867 62.59 66.1167 62.75 65.9767 62.88C65.8467 63.01 65.6867 63.075 65.4967 63.075ZM71.9771 63.15C70.7571 63.15 69.8021 62.805 69.1121 62.115C68.4321 61.415 68.0921 60.435 68.0921 59.175C68.0921 58.465 68.2221 57.81 68.4821 57.21C68.7421 56.61 69.1421 56.125 69.6821 55.755C70.2221 55.385 70.8871 55.2 71.6771 55.2C72.4171 55.2 73.0571 55.375 73.5971 55.725C74.1371 56.065 74.5471 56.525 74.8271 57.105C75.1071 57.675 75.2471 58.3 75.2471 58.98C75.2471 59.17 75.1821 59.33 75.0521 59.46C74.9321 59.59 74.7671 59.655 74.5571 59.655H69.4721C69.5521 60.355 69.8121 60.9 70.2521 61.29C70.6921 61.68 71.3071 61.875 72.0971 61.875C72.5171 61.875 72.8821 61.835 73.1921 61.755C73.5121 61.675 73.8221 61.56 74.1221 61.41C74.2021 61.37 74.2921 61.35 74.3921 61.35C74.5521 61.35 74.6921 61.405 74.8121 61.515C74.9321 61.625 74.9921 61.765 74.9921 61.935C74.9921 62.155 74.8621 62.34 74.6021 62.49C74.2121 62.71 73.8271 62.875 73.4471 62.985C73.0671 63.095 72.5771 63.15 71.9771 63.15ZM73.8971 58.545C73.8671 58.055 73.7371 57.645 73.5071 57.315C73.2871 56.985 73.0121 56.745 72.6821 56.595C72.3521 56.435 72.0171 56.355 71.6771 56.355C71.3371 56.355 71.0021 56.435 70.6721 56.595C70.3421 56.745 70.0671 56.985 69.8471 57.315C69.6271 57.645 69.5021 58.055 69.4721 58.545H73.8971ZM77.7282 63.075C77.5382 63.075 77.3782 63.01 77.2482 62.88C77.1182 62.75 77.0532 62.59 77.0532 62.4V52.665C77.0532 52.475 77.1182 52.315 77.2482 52.185C77.3782 52.045 77.5382 51.975 77.7282 51.975C77.9282 51.975 78.0932 52.04 78.2232 52.17C78.3532 52.3 78.4182 52.465 78.4182 52.665V62.4C78.4182 62.59 78.3482 62.75 78.2082 62.88C78.0782 63.01 77.9182 63.075 77.7282 63.075ZM88.105 63.15C86.885 63.15 85.93 62.805 85.24 62.115C84.56 61.415 84.22 60.435 84.22 59.175C84.22 58.465 84.35 57.81 84.61 57.21C84.87 56.61 85.27 56.125 85.81 55.755C86.35 55.385 87.015 55.2 87.805 55.2C88.545 55.2 89.185 55.375 89.725 55.725C90.265 56.065 90.675 56.525 90.955 57.105C91.235 57.675 91.375 58.3 91.375 58.98C91.375 59.17 91.31 59.33 91.18 59.46C91.06 59.59 90.895 59.655 90.685 59.655H85.6C85.68 60.355 85.94 60.9 86.38 61.29C86.82 61.68 87.435 61.875 88.225 61.875C88.645 61.875 89.01 61.835 89.32 61.755C89.64 61.675 89.95 61.56 90.25 61.41C90.33 61.37 90.42 61.35 90.52 61.35C90.68 61.35 90.82 61.405 90.94 61.515C91.06 61.625 91.12 61.765 91.12 61.935C91.12 62.155 90.99 62.34 90.73 62.49C90.34 62.71 89.955 62.875 89.575 62.985C89.195 63.095 88.705 63.15 88.105 63.15ZM90.025 58.545C89.995 58.055 89.865 57.645 89.635 57.315C89.415 56.985 89.14 56.745 88.81 56.595C88.48 56.435 88.145 56.355 87.805 56.355C87.465 56.355 87.13 56.435 86.8 56.595C86.47 56.745 86.195 56.985 85.975 57.315C85.755 57.645 85.63 58.055 85.6 58.545H90.025ZM93.8561 63.075C93.6661 63.075 93.5061 63.01 93.3761 62.88C93.2461 62.75 93.1811 62.59 93.1811 62.4V52.665C93.1811 52.475 93.2461 52.315 93.3761 52.185C93.5061 52.045 93.6661 51.975 93.8561 51.975C94.0461 51.975 94.2061 52.045 94.3361 52.185C94.4761 52.315 94.5461 52.475 94.5461 52.665V58.8L98.1161 55.5C98.2661 55.37 98.4161 55.305 98.5661 55.305C98.7961 55.305 98.9611 55.37 99.0611 55.5C99.1711 55.63 99.2261 55.785 99.2261 55.965C99.2261 56.135 99.1411 56.305 98.9711 56.475L96.8111 58.41L99.5261 62.01C99.6261 62.14 99.6761 62.275 99.6761 62.415C99.6761 62.615 99.6111 62.775 99.4811 62.895C99.3511 63.015 99.1861 63.075 98.9861 63.075C98.8861 63.075 98.7861 63.05 98.6861 63C98.5861 62.95 98.5011 62.88 98.4311 62.79L95.8511 59.28L94.5461 60.465V62.4C94.5461 62.59 94.4761 62.75 94.3361 62.88C94.2061 63.01 94.0461 63.075 93.8561 63.075ZM103.965 63.15C103.415 63.15 102.935 63.02 102.525 62.76C102.125 62.5 101.815 62.145 101.595 61.695C101.385 61.245 101.28 60.75 101.28 60.21V55.95C101.28 55.76 101.345 55.6 101.475 55.47C101.615 55.34 101.78 55.275 101.97 55.275C102.16 55.275 102.32 55.34 102.45 55.47C102.58 55.6 102.645 55.76 102.645 55.95V60.06C102.645 61.28 103.195 61.89 104.295 61.89C104.795 61.89 105.24 61.76 105.63 61.5C106.03 61.24 106.405 60.89 106.755 60.45V55.95C106.755 55.76 106.82 55.6 106.95 55.47C107.09 55.34 107.255 55.275 107.445 55.275C107.635 55.275 107.795 55.34 107.925 55.47C108.055 55.6 108.12 55.76 108.12 55.95V62.385C108.12 62.575 108.055 62.74 107.925 62.88C107.795 63.01 107.635 63.075 107.445 63.075C107.255 63.075 107.09 63.01 106.95 62.88C106.82 62.74 106.755 62.575 106.755 62.385V61.77C106.375 62.19 105.965 62.525 105.525 62.775C105.085 63.025 104.565 63.15 103.965 63.15ZM111.171 63.075C110.981 63.075 110.821 63.01 110.691 62.88C110.561 62.75 110.496 62.59 110.496 62.4V55.965C110.496 55.775 110.561 55.615 110.691 55.485C110.821 55.345 110.981 55.275 111.171 55.275C111.361 55.275 111.521 55.345 111.651 55.485C111.791 55.615 111.861 55.775 111.861 55.965V56.58C112.241 56.16 112.651 55.825 113.091 55.575C113.531 55.325 114.051 55.2 114.651 55.2C115.201 55.2 115.676 55.33 116.076 55.59C116.486 55.85 116.796 56.205 117.006 56.655C117.226 57.105 117.336 57.6 117.336 58.14V62.4C117.336 62.59 117.266 62.75 117.126 62.88C116.996 63.01 116.836 63.075 116.646 63.075C116.456 63.075 116.296 63.01 116.166 62.88C116.036 62.75 115.971 62.59 115.971 62.4V58.29C115.971 57.07 115.421 56.46 114.321 56.46C113.821 56.46 113.371 56.59 112.971 56.85C112.581 57.11 112.211 57.46 111.861 57.9V62.4C111.861 62.59 111.791 62.75 111.651 62.88C111.521 63.01 111.361 63.075 111.171 63.075ZM123.011 63.15C122.241 63.15 121.566 62.985 120.986 62.655C120.406 62.325 119.956 61.86 119.636 61.26C119.326 60.65 119.171 59.955 119.171 59.175C119.171 58.395 119.326 57.705 119.636 57.105C119.956 56.495 120.406 56.025 120.986 55.695C121.566 55.365 122.241 55.2 123.011 55.2C123.771 55.2 124.441 55.365 125.021 55.695C125.601 56.025 126.051 56.495 126.371 57.105C126.691 57.705 126.851 58.395 126.851 59.175C126.851 59.955 126.691 60.65 126.371 61.26C126.051 61.86 125.601 62.325 125.021 62.655C124.441 62.985 123.771 63.15 123.011 63.15ZM123.011 61.905C123.421 61.905 123.811 61.81 124.181 61.62C124.561 61.43 124.871 61.13 125.111 60.72C125.361 60.31 125.486 59.79 125.486 59.16C125.486 58.54 125.361 58.025 125.111 57.615C124.871 57.205 124.561 56.91 124.181 56.73C123.811 56.54 123.421 56.445 123.011 56.445C122.591 56.445 122.191 56.54 121.811 56.73C121.441 56.91 121.136 57.205 120.896 57.615C120.656 58.025 120.536 58.54 120.536 59.16C120.536 59.79 120.656 60.31 120.896 60.72C121.136 61.13 121.441 61.43 121.811 61.62C122.191 61.81 122.591 61.905 123.011 61.905ZM129.437 63.075C129.247 63.075 129.087 63.01 128.957 62.88C128.827 62.75 128.762 62.59 128.762 62.4V52.665C128.762 52.475 128.827 52.315 128.957 52.185C129.087 52.045 129.247 51.975 129.437 51.975C129.637 51.975 129.802 52.04 129.932 52.17C130.062 52.3 130.127 52.465 130.127 52.665V62.4C130.127 62.59 130.057 62.75 129.917 62.88C129.787 63.01 129.627 63.075 129.437 63.075ZM134.448 63.15C134.008 63.15 133.598 63.06 133.218 62.88C132.848 62.7 132.553 62.44 132.333 62.1C132.113 61.75 132.003 61.35 132.003 60.9C132.003 60.16 132.293 59.57 132.873 59.13C133.463 58.69 134.323 58.47 135.453 58.47H137.268V58.35C137.268 57.69 137.103 57.215 136.773 56.925C136.453 56.635 135.948 56.49 135.258 56.49C134.878 56.49 134.538 56.52 134.238 56.58C133.948 56.64 133.623 56.73 133.263 56.85C133.183 56.87 133.118 56.88 133.068 56.88C132.918 56.88 132.788 56.825 132.678 56.715C132.568 56.605 132.513 56.47 132.513 56.31C132.513 56.04 132.643 55.85 132.903 55.74C133.753 55.38 134.618 55.2 135.498 55.2C136.188 55.2 136.768 55.34 137.238 55.62C137.718 55.9 138.068 56.265 138.288 56.715C138.518 57.155 138.633 57.635 138.633 58.155V62.4C138.633 62.59 138.563 62.75 138.423 62.88C138.293 63.01 138.133 63.075 137.943 63.075C137.753 63.075 137.593 63.01 137.463 62.88C137.333 62.75 137.268 62.59 137.268 62.4V62.01C136.528 62.77 135.588 63.15 134.448 63.15ZM134.958 61.95C135.398 61.95 135.823 61.845 136.233 61.635C136.643 61.415 136.988 61.145 137.268 60.825V59.565H135.633C134.123 59.565 133.368 59.96 133.368 60.75C133.368 61.11 133.488 61.4 133.728 61.62C133.978 61.84 134.388 61.95 134.958 61.95Z" fill="black"/>
<path fill-rule="evenodd" clip-rule="evenodd" d="M46.1994 10.7705L41.5992 4.44H32.0302V35.88C32.0302 40.08 32.9902 43.02 34.9102 44.7C36.8702 46.34 40.2502 47.16 45.0502 47.16H60.1702V39.72H45.6502C43.6502 39.72 42.2702 39.4 41.5102 38.76C40.7502 38.12 40.3702 36.96 40.3702 35.28V29.34H53.6302L54.2302 21.9H40.3702V11.88H60.1702V4.44H47.3157L46.1994 10.7705ZM23.1 36.96V44.76L0 33.42V27.06L23.1 15.78V23.58L7.98 30.3L23.1 36.96ZM87.3154 47.16H81.3783C76.5783 47.16 73.1983 46.34 71.2383 44.7C69.3183 43.02 68.3583 40.08 68.3583 35.88V4.44H96.4983V11.88H76.6983V21.9H90.5583L89.9583 29.34H76.6983V35.28C76.6983 36.96 77.0783 38.12 77.8383 38.76C78.5895 39.3926 79.9463 39.7125 81.9088 39.7199L87.3154 47.16ZM91.4211 47.16L82.1962 39.72H96.4983V47.16H91.4211ZM138.072 0L120.972 51.6H113.652L130.752 0H138.072ZM141.211 44.76V36.96L156.331 30.3L141.211 23.58V15.78L164.311 27.06V33.42L141.211 44.76Z" fill="black"/>
</svg>
